<svg width="35" height="31" viewBox="0 0 35 31" fill="none" xmlns="http://www.w3.org/2000/svg">
<path d="M32.8125 13.2873H6.86875L14.8094 3.63388C15.1807 3.18172 15.3593 2.5988 15.306 2.01333C15.2527 1.42787 14.9717 0.887829 14.525 0.512013C14.0783 0.136197 13.5023 -0.0446099 12.9239 0.00936891C12.3455 0.0633478 11.8119 0.347691 11.4406 0.799844L0.503125 14.0844C0.429539 14.19 0.363736 14.301 0.30625 14.4165C0.30625 14.5272 0.30625 14.5936 0.153125 14.7043C0.0539736 14.9582 0.0020587 15.2284 0 15.5014C0.0020587 15.7744 0.0539736 16.0446 0.153125 16.2985C0.153125 16.4092 0.153125 16.4756 0.30625 16.5863C0.363736 16.7017 0.429539 16.8127 0.503125 16.9184L11.4406 30.2029C11.6463 30.4529 11.9039 30.6539 12.195 30.7916C12.4861 30.9294 12.8036 31.0005 13.125 31C13.6361 31.001 14.1314 30.8208 14.525 30.4908C14.7465 30.3049 14.9296 30.0766 15.0638 29.819C15.198 29.5614 15.2807 29.2795 15.3071 28.9895C15.3335 28.6996 15.3032 28.4071 15.2178 28.129C15.1323 27.8509 14.9936 27.5926 14.8094 27.3689L6.86875 17.7155H32.8125C33.3927 17.7155 33.9491 17.4822 34.3593 17.067C34.7695 16.6518 35 16.0886 35 15.5014C35 14.9142 34.7695 14.351 34.3593 13.9358C33.9491 13.5206 33.3927 13.2873 32.8125 13.2873Z" fill="#A016C4"/>
</svg>
