<svg width="17" height="24" viewBox="0 0 17 24" fill="none" xmlns="http://www.w3.org/2000/svg">
<path d="M8.25 3.75C5.76844 3.75 3.75 5.76844 3.75 8.25C3.75 8.66438 4.08563 9 4.5 9C4.91437 9 5.25 8.66438 5.25 8.25C5.25 6.59531 6.59625 5.25 8.25 5.25C8.66438 5.25 9 4.91437 9 4.5C9 4.08563 8.66438 3.75 8.25 3.75ZM4.50281 21.5236C4.50281 21.6713 4.54641 21.8152 4.62844 21.938L5.77734 23.6648C5.91656 23.8739 6.15094 23.9995 6.40172 23.9995H10.0978C10.3491 23.9995 10.5834 23.8739 10.7222 23.6648L11.8711 21.938C11.9527 21.8152 11.9962 21.6708 11.9967 21.5236L11.9991 19.4995H4.50094L4.50281 21.5236ZM8.25 0C3.45563 0 0 3.88922 0 8.25C0 10.3298 0.771094 12.2273 2.04188 13.6772C2.82188 14.5673 4.04531 16.4334 4.49906 17.9972V18H6.74906V17.9944C6.74859 17.7708 6.71531 17.5486 6.64828 17.3348C6.38625 16.5 5.57859 14.2988 3.73406 12.1941C2.77125 11.0958 2.25656 9.70266 2.25234 8.25C2.24297 4.79813 5.04938 2.25 8.25 2.25C11.5584 2.25 14.25 4.94156 14.25 8.25C14.25 9.70172 13.7231 11.1023 12.7664 12.1941C10.9331 14.2852 10.1217 16.4817 9.85547 17.325C9.78675 17.5418 9.75166 17.7679 9.75141 17.9953V18H12.0014V17.9977C12.4552 16.4334 13.6786 14.5673 14.4586 13.6777C15.7289 12.2273 16.5 10.3298 16.5 8.25C16.5 3.69375 12.8062 0 8.25 0Z" fill="#D9C8DE"/>
</svg>
