<svg width="300" height="300" viewBox="0 0 300 300" fill="none" xmlns="http://www.w3.org/2000/svg">
<path d="M225.747 184.5H221.372L191.627 147.318C189.987 145.269 187.908 143.615 185.542 142.478C183.177 141.341 180.586 140.75 177.961 140.75H119.47C112.314 140.75 105.88 145.106 103.222 151.75L90.1219 185.118C82.586 187.07 76.9969 193.854 76.9969 202V232.625C76.9969 235.042 78.9548 237 81.3719 237H94.4969C94.4969 251.498 106.249 263.25 120.747 263.25C135.245 263.25 146.997 251.498 146.997 237H181.997C181.997 251.498 193.749 263.25 208.247 263.25C222.745 263.25 234.497 251.498 234.497 237H247.622C250.039 237 251.997 235.042 251.997 232.625V210.75C251.997 196.252 240.245 184.5 225.747 184.5ZM120.747 250.125C113.509 250.125 107.622 244.238 107.622 237C107.622 229.762 113.509 223.875 120.747 223.875C127.985 223.875 133.872 229.762 133.872 237C133.872 244.238 127.985 250.125 120.747 250.125ZM140.434 184.5H108.97L119.47 158.25H140.434V184.5ZM153.559 184.5V158.25H177.961L198.961 184.5H153.559ZM208.247 250.125C201.009 250.125 195.122 244.238 195.122 237C195.122 229.762 201.009 223.875 208.247 223.875C215.485 223.875 221.372 229.762 221.372 237C221.372 244.238 215.485 250.125 208.247 250.125Z" fill="#BC9DC4"/>
<path d="M55.0727 93.5875L48.3227 91.6125C47.5415 91.3875 46.9977 90.6562 46.9977 89.8438C46.9977 88.825 47.8227 88 48.8415 88H52.9852C53.7477 88 54.4977 88.2312 55.1227 88.6562C55.504 88.9125 56.0165 88.85 56.3415 88.5312L58.5165 86.4062C58.9602 85.975 58.8977 85.2562 58.404 84.875C56.8727 83.675 54.9602 83.0063 52.9977 83V80C52.9977 79.45 52.5477 79 51.9977 79H49.9977C49.4477 79 48.9977 79.45 48.9977 80V83H48.8415C44.8602 83 41.6602 86.4188 42.029 90.475C42.2915 93.3563 44.4915 95.7 47.2665 96.5125L53.6727 98.3875C54.454 98.6188 54.9977 99.3438 54.9977 100.156C54.9977 101.175 54.1727 102 53.154 102H49.0102C48.2477 102 47.4977 101.769 46.8727 101.344C46.4915 101.088 45.979 101.15 45.654 101.469L43.479 103.594C43.0352 104.025 43.0977 104.744 43.5915 105.125C45.1227 106.325 47.0352 106.994 48.9977 107V110C48.9977 110.55 49.4477 111 49.9977 111H51.9977C52.5477 111 52.9977 110.55 52.9977 110V106.987C55.9102 106.931 58.6415 105.2 59.604 102.444C60.9477 98.5938 58.6915 94.6437 55.0727 93.5875V93.5875Z" fill="#0BC518"/>
<path d="M168.791 60.1605L157.541 56.8895C156.239 56.5168 155.332 55.3057 155.332 53.96C155.332 52.2727 156.707 50.9062 158.405 50.9062H165.312C166.582 50.9062 167.832 51.2893 168.874 51.9932C169.51 52.4176 170.364 52.3141 170.905 51.7861L174.53 48.2666C175.27 47.5523 175.166 46.3619 174.343 45.7305C171.791 43.743 168.603 42.6354 165.332 42.625V37.6562C165.332 36.7453 164.582 36 163.666 36H160.332C159.416 36 158.666 36.7453 158.666 37.6562V42.625H158.405C151.77 42.625 146.437 48.2873 147.051 55.0055C147.489 59.7775 151.155 63.6594 155.78 65.0051L166.457 68.1105C167.76 68.4936 168.666 69.6943 168.666 71.04C168.666 72.7273 167.291 74.0938 165.593 74.0938H158.687C157.416 74.0938 156.166 73.7107 155.124 73.0068C154.489 72.5824 153.635 72.6859 153.093 73.2139L149.468 76.7334C148.728 77.4477 148.832 78.6381 149.655 79.2695C152.207 81.257 155.395 82.3646 158.666 82.375V87.3438C158.666 88.2547 159.416 89 160.332 89H163.666C164.582 89 165.332 88.2547 165.332 87.3438V82.3543C170.187 82.2611 174.739 79.3938 176.343 74.8287C178.582 68.4521 174.822 61.91 168.791 60.1605V60.1605Z" fill="#0BC518"/>
<path d="M251.432 117.602L242.432 114.948C241.39 114.646 240.665 113.663 240.665 112.571C240.665 111.202 241.765 110.094 243.124 110.094H248.649C249.665 110.094 250.665 110.404 251.499 110.976C252.007 111.32 252.69 111.236 253.124 110.808L256.024 107.952C256.615 107.373 256.532 106.407 255.874 105.895C253.832 104.282 251.282 103.383 248.665 103.375V99.3438C248.665 98.6047 248.065 98 247.332 98H244.665C243.932 98 243.332 98.6047 243.332 99.3438V103.375H243.124C237.815 103.375 233.549 107.969 234.04 113.42C234.39 117.291 237.324 120.441 241.024 121.532L249.565 124.052C250.607 124.363 251.332 125.337 251.332 126.429C251.332 127.798 250.232 128.906 248.874 128.906H243.349C242.332 128.906 241.332 128.596 240.499 128.024C239.99 127.68 239.307 127.764 238.874 128.192L235.974 131.048C235.382 131.627 235.465 132.593 236.124 133.105C238.165 134.718 240.715 135.617 243.332 135.625V139.656C243.332 140.395 243.932 141 244.665 141H247.332C248.065 141 248.665 140.395 248.665 139.656V135.608C252.549 135.533 256.19 133.206 257.474 129.503C259.265 124.329 256.257 119.021 251.432 117.602V117.602Z" fill="#0BC518"/>
</svg>
